# xmcd
#
# Track frame offsets:
#	150
#	12411
#	25299
#	37100
#	50182
#	68559
#	84950
#	104734
#	119697
#	137417
#	155902
#	174244
#
# Disc length: 2544 seconds
#
# Revision: 2
# Processed by: cddbd v1.5.2PL0 Copyright (c) Steve Scherf et al.
# Submitted via: EZCDAudioConverter 8.0.7.1
#
DISCID=a609ee0c
DTITLE=Various Artist - Travelling
DYEAR=1999
DGENRE=Country
TTITLE0=Angie Leon and Julia Scott - Hello My Love
TTITLE1=Rody Correa - La Bamba
TTITLE2=Harmony - Keep My Eyes Open
TTITLE3=Emmanuel Gilligan - Sad Day
TTITLE4=Augusto Carreira - You Know
TTITLE5=Sara Ange Meakins - Beside You Baby
TTITLE6=Augusto and Emmanuel - Back Track Train
TTITLE7=Katrina Danika - Standing Right by Me
TTITLE8=Emmanuel Gilligan - If it Wasn't for You
TTITLE9=Rody Correa - Una Noche Mas
TTITLE10=Katrina Danika - Wayfaring Stranger
TTITLE11=Emmanuel and Augusto - We Can Change the World
EXTD=
EXTT0=
EXTT1=
EXTT2=
EXTT3=
EXTT4=
EXTT5=
EXTT6=
EXTT7=
EXTT8=
EXTT9=
EXTT10=
EXTT11=
PLAYORDER=
